<?xml version="1.0" encoding="UTF-8"?>
<svg width="376px" height="234px" viewBox="0 0 376 234" version="1.1" xmlns="http://www.w3.org/2000/svg" xmlns:xlink="http://www.w3.org/1999/xlink">
    <!-- Generator: Sketch 51.2 (57519) - http://www.bohemiancoding.com/sketch -->
    <title>app-icons-lockup</title>
    <desc>Created with Sketch.</desc>
    <defs>
        <polygon id="path-1" points="0 233.240642 376 233.240642 376 0 0 0"></polygon>
    </defs>
    <g id="app-icons-lockup" stroke="none" stroke-width="1" fill="none" fill-rule="evenodd">
        <g id="Page-1">
            <mask id="mask-2" fill="white">
                <use xlink:href="#path-1"></use>
            </mask>
            <g id="Clip-4"></g>
            <g id="icon-apps-color-yammer" mask="url(#mask-2)" fill="#0078D7">
                <g transform="translate(268.000000, 133.000000)" id="">
                    <path d="M16.09375,2.29464286 C16.3229178,2.29464286 16.5390615,2.33891325 16.7421875,2.42745536 C16.9453135,2.51599747 17.1223951,2.63318379 17.2734375,2.77901786 C17.4244799,2.92485192 17.5442704,3.09932934 17.6328125,3.30245536 C17.7213546,3.50558137 17.765625,3.72172504 17.765625,3.95089286 C17.765625,4.10714364 17.7447919,4.26078794 17.703125,4.41183036 C17.6614581,4.56287278 17.6093753,4.71130879 17.546875,4.85714286 C16.2552019,7.9925752 14.9869854,11.1123357 13.7421875,14.2165179 C12.4973896,17.3207 11.2500062,20.4508771 10,23.6071429 C9.666665,24.4404804 9.32291844,25.2008894 8.96875,25.8883929 C8.61458156,26.5758963 8.19010664,27.1670362 7.6953125,27.6618304 C7.20051836,28.1566245 6.61198258,28.5420373 5.9296875,28.8180804 C5.24739242,29.0941234 4.406255,29.2321429 3.40625,29.2321429 C3.12499859,29.2321429 2.82291828,29.2217263 2.5,29.2008929 C2.17708172,29.1800594 1.87760555,29.1201642 1.6015625,29.0212054 C1.32551945,28.9222465 1.09635508,28.7659981 0.9140625,28.5524554 C0.731769922,28.3389126 0.640625,28.0394365 0.640625,27.6540179 C0.640625,27.4456835 0.679687109,27.2503729 0.7578125,27.0680804 C0.835937891,26.8857878 0.942707656,26.7243311 1.078125,26.5837054 C1.21354234,26.4430797 1.37499906,26.3337057 1.5625,26.2555804 C1.75000094,26.177455 1.94791563,26.1383929 2.15625,26.1383929 C2.33333422,26.1383929 2.5052075,26.1462053 2.671875,26.1618304 C2.8385425,26.1774554 3.01041578,26.1852679 3.1875,26.1852679 C3.87500344,26.1852679 4.43228953,26.0628732 4.859375,25.8180804 C5.28646047,25.5732875 5.64062359,25.2529782 5.921875,24.8571429 C6.20312641,24.4613075 6.44270734,24.0133954 6.640625,23.5133929 C6.83854266,23.0133904 7.05729047,22.5029788 7.296875,21.9821429 C6.48437094,20.013383 5.67969148,18.0550693 4.8828125,16.1071429 C4.08593352,14.1592165 3.28125406,12.2009027 2.46875,10.2321429 L0.828125,6.21651786 C0.703124375,5.91443301 0.575521484,5.60974856 0.4453125,5.30245536 C0.315103516,4.99516215 0.197917188,4.6904777 0.09375,4.38839286 C0.0312496875,4.22172536 0,4.03422723 0,3.82589286 C0,3.58630833 0.0468745312,3.35974809 0.140625,3.14620536 C0.234375469,2.93266262 0.359374219,2.74776864 0.515625,2.59151786 C0.671875781,2.43526708 0.856769766,2.31026833 1.0703125,2.21651786 C1.28385523,2.12276739 1.51041547,2.07589286 1.75,2.07589286 C2.13541859,2.07589286 2.47916516,2.18526676 2.78125,2.40401786 C3.08333484,2.62276895 3.29687438,2.9144327 3.421875,3.27901786 L3.421875,3.29464286 L9.078125,17.5915179 L9.15625,17.5915179 C9.22916703,17.4144336 9.35937406,17.0758954 9.546875,16.5758929 C9.73437594,16.0758904 9.96093617,15.4821463 10.2265625,14.7946429 C10.4921888,14.1071394 10.7812484,13.3519386 11.09375,12.5290179 C11.4062516,11.7060971 11.7213526,10.8779804 12.0390625,10.0446429 C12.3567724,9.21130536 12.664061,8.40402176 12.9609375,7.62276786 C13.257814,6.84151395 13.5208322,6.1462084 13.75,5.53683036 C13.9791678,4.92745231 14.1614577,4.43787387 14.296875,4.06808036 C14.4322923,3.69828684 14.5,3.50818458 14.5,3.49776786 C14.6770842,3.14359942 14.877603,2.85453981 15.1015625,2.63058036 C15.325522,2.4066209 15.6562478,2.29464286 16.09375,2.29464286 Z M28.34375,7.04464286 C28.34375,7.27381067 28.289063,7.50818333 28.1796875,7.74776786 C28.070312,7.98735239 27.9166677,8.17485051 27.71875,8.31026786 C27.5312491,8.43526848 27.3307302,8.54985067 27.1171875,8.65401786 C26.9036448,8.75818504 26.6927094,8.86235067 26.484375,8.96651786 L25.515625,9.45089286 C25.1197897,9.64881051 24.6848982,9.8597459 24.2109375,10.0837054 C23.7369768,10.3076648 23.2447942,10.5290168 22.734375,10.7477679 C22.2239558,10.966519 21.7291691,11.1670378 21.25,11.3493304 C20.7708309,11.5316229 20.3255229,11.6774548 19.9140625,11.7868304 C19.5026021,11.8962059 19.166668,11.9508929 18.90625,11.9508929 C18.833333,11.9508929 18.7395839,11.9404763 18.625,11.9196429 C18.5104161,11.8988094 18.453125,11.83631 18.453125,11.7321429 C18.453125,11.5863088 18.61979,11.3415196 18.953125,10.9977679 C19.28646,10.6540161 19.7109349,10.263395 20.2265625,9.82589286 C20.7421901,9.38839067 21.3098927,8.93006192 21.9296875,8.45089286 C22.5494823,7.97172379 23.1484346,7.52381161 23.7265625,7.10714286 C24.3046904,6.69047411 24.8229144,6.33370684 25.28125,6.03683036 C25.7395856,5.73995387 26.0624991,5.55505989 26.25,5.48214286 C26.3125003,5.46130942 26.3880204,5.44568458 26.4765625,5.43526786 C26.5651046,5.42485114 26.645833,5.41964286 26.71875,5.41964286 C26.9375011,5.41964286 27.1458323,5.46130911 27.34375,5.54464286 C27.5416677,5.62797661 27.7161451,5.74255879 27.8671875,5.88839286 C28.0182299,6.03422692 28.1354162,6.2061002 28.21875,6.40401786 C28.3020838,6.60193551 28.34375,6.81547504 28.34375,7.04464286 Z M18.921875,20.0446429 C19.1927097,20.0446429 19.5651018,20.1123505 20.0390625,20.2477679 C20.5130232,20.3831852 21.0364555,20.5602668 21.609375,20.7790179 C22.1822945,20.997769 22.7812469,21.2425582 23.40625,21.5133929 C24.0312531,21.7842275 24.6249972,22.0550582 25.1875,22.3258929 C25.7500028,22.5967275 26.2552061,22.8519333 26.703125,23.0915179 C27.1510439,23.3311024 27.4895822,23.5238088 27.71875,23.6696429 C27.9166677,23.7946435 28.070312,23.9821416 28.1796875,24.2321429 C28.289063,24.4821441 28.34375,24.7165168 28.34375,24.9352679 C28.34375,25.1644357 28.2994796,25.3779752 28.2109375,25.5758929 C28.1223954,25.7738105 28.0052091,25.9482879 27.859375,26.0993304 C27.7135409,26.2503728 27.5390635,26.3675591 27.3359375,26.4508929 C27.1328115,26.5342266 26.9218761,26.5758929 26.703125,26.5758929 C26.5260408,26.5758929 26.3750006,26.5550597 26.25,26.5133929 C26.2187498,26.5029761 26.1875002,26.4873513 26.15625,26.4665179 L26.0625,26.4040179 C25.8645823,26.2790172 25.5416689,26.0654777 25.09375,25.7633929 C24.6458311,25.461308 24.1380237,25.1123532 23.5703125,24.7165179 C23.0026013,24.3206825 22.4166697,23.8962076 21.8125,23.4430804 C21.2083303,22.9899531 20.6588566,22.5550616 20.1640625,22.1383929 C19.6692684,21.7217241 19.2604183,21.3467279 18.9375,21.0133929 C18.6145817,20.6800579 18.453125,20.4300604 18.453125,20.2633929 C18.453125,20.1592257 18.5130202,20.0967263 18.6328125,20.0758929 C18.7526048,20.0550594 18.848958,20.0446429 18.921875,20.0446429 Z M30.515625,14.3102679 C30.7239594,14.3102679 30.9192699,14.3545382 31.1015625,14.4430804 C31.2838551,14.5316225 31.4401035,14.6488088 31.5703125,14.7946429 C31.7005215,14.9404769 31.8046871,15.1097461 31.8828125,15.3024554 C31.9609379,15.4951647 32,15.6904752 32,15.8883929 C32,16.0550604 31.9661462,16.2347461 31.8984375,16.4274554 C31.8307288,16.6201647 31.7343756,16.7972462 31.609375,16.9587054 C31.4843744,17.1201645 31.3411466,17.2529757 31.1796875,17.3571429 C31.0182284,17.46131 30.8437509,17.5133929 30.65625,17.5133929 C30.4270822,17.5133929 30.0416694,17.5081846 29.5,17.4977679 C28.9583306,17.4873511 28.3437534,17.4639139 27.65625,17.4274554 C26.9687466,17.3909968 26.2473996,17.3415182 25.4921875,17.2790179 C24.7369754,17.2165175 24.0338574,17.1357892 23.3828125,17.0368304 C22.7317676,16.9378715 22.1770856,16.8206852 21.71875,16.6852679 C21.2604144,16.5498505 20.9791672,16.3831855 20.875,16.1852679 C20.875,16.1748511 20.8723959,16.1644346 20.8671875,16.1540179 C20.8619791,16.1436011 20.859375,16.1331846 20.859375,16.1227679 C20.859375,16.0186007 20.9322909,15.9300599 21.078125,15.8571429 C21.2239591,15.7842258 21.333333,15.7373513 21.40625,15.7165179 C21.666668,15.6123507 22.0312477,15.5029768 22.5,15.3883929 C22.9687523,15.273809 23.4921846,15.164435 24.0703125,15.0602679 C24.6484404,14.9561007 25.2499969,14.8597475 25.875,14.7712054 C26.5000031,14.6826632 27.1067679,14.604539 27.6953125,14.5368304 C28.2838571,14.4691217 28.8255184,14.4144347 29.3203125,14.3727679 C29.8151066,14.331101 30.2135402,14.3102679 30.515625,14.3102679 Z"></path>
                </g>
            </g>
            <g id="icon-apps-color-Teams" mask="url(#mask-2)">
                <g transform="translate(204.000000, 133.000000)">
                    <path d="M20.5,11.5 C20.0833313,11.5 19.6927102,11.4218758 19.328125,11.265625 C18.9635398,11.1093742 18.6458347,10.8958347 18.375,10.625 C18.1041653,10.3541653 17.8906258,10.0364602 17.734375,9.671875 C17.5781242,9.30728984 17.5,8.91666875 17.5,8.5 C17.5,8.08333125 17.5781242,7.69271016 17.734375,7.328125 C17.8906258,6.96353984 18.1041653,6.64583469 18.375,6.375 C18.6458347,6.10416531 18.9635398,5.89062578 19.328125,5.734375 C19.6927102,5.57812422 20.0833313,5.5 20.5,5.5 C20.9166687,5.5 21.3072898,5.57812422 21.671875,5.734375 C22.0364602,5.89062578 22.3541653,6.10416531 22.625,6.375 C22.8958347,6.64583469 23.1093742,6.96353984 23.265625,7.328125 C23.4218758,7.69271016 23.5,8.08333125 23.5,8.5 C23.5,8.91666875 23.4218758,9.30728984 23.265625,9.671875 C23.1093742,10.0364602 22.8958347,10.3541653 22.625,10.625 C22.3541653,10.8958347 22.0364602,11.1093742 21.671875,11.265625 C21.3072898,11.4218758 20.9166687,11.5 20.5,11.5 Z M27.5,13.5 C27.0833313,13.5 26.6927102,13.4218758 26.328125,13.265625 C25.9635398,13.1093742 25.6458347,12.8958347 25.375,12.625 C25.1041653,12.3541653 24.8906258,12.0364602 24.734375,11.671875 C24.5781242,11.3072898 24.5,10.9166688 24.5,10.5 C24.5,10.0833312 24.5781242,9.69271016 24.734375,9.328125 C24.8906258,8.96353984 25.1041653,8.64583469 25.375,8.375 C25.6458347,8.10416531 25.9635398,7.89062578 26.328125,7.734375 C26.6927102,7.57812422 27.0833313,7.5 27.5,7.5 C27.9166688,7.5 28.3072898,7.57812422 28.671875,7.734375 C29.0364602,7.89062578 29.3541653,8.10416531 29.625,8.375 C29.8958347,8.64583469 30.1093742,8.96353984 30.265625,9.328125 C30.4218758,9.69271016 30.5,10.0833312 30.5,10.5 C30.5,10.9166688 30.4218758,11.3072898 30.265625,11.671875 C30.1093742,12.0364602 29.8958347,12.3541653 29.625,12.625 C29.3541653,12.8958347 29.0364602,13.1093742 28.671875,13.265625 C28.3072898,13.4218758 27.9166688,13.5 27.5,13.5 Z M24.5,15.5 L30.5,15.5 L30.5,20.078125 C30.5,20.5572941 30.4062509,21.0052063 30.21875,21.421875 C30.0312491,21.8385437 29.7786474,22.2005193 29.4609375,22.5078125 C29.1432276,22.8151057 28.7734396,23.0572908 28.3515625,23.234375 C27.9296854,23.4114592 27.4791691,23.5 27,23.5 L23.765625,23.5 C23.3489563,24.1250031 22.8046909,24.6145816 22.1328125,24.96875 C21.4609341,25.3229184 20.7500038,25.5 20,25.5 C19.3854136,25.5 18.8072944,25.3854178 18.265625,25.15625 C17.7239556,24.9270822 17.2473979,24.6145853 16.8359375,24.21875 C16.4244771,23.8229147 16.0989595,23.3567735 15.859375,22.8203125 C15.6197905,22.2838515 15.5,21.7083364 15.5,21.09375 L15.5,14.5 L24.5,14.5 L24.5,15.5 Z M5.578125,9.21875 L14.421875,9.21875 L14.421875,12.90625 L11.75,12.90625 L11.75,22.5 L8.21875,22.5 L8.21875,12.921875 L5.578125,12.921875 L5.578125,9.21875 Z" id="" fill="#FFFFFF"></path>
                    <path d="M30,15 C30.2708347,15 30.5052073,15.0989573 30.703125,15.296875 C30.9010427,15.4947927 31,15.7291653 31,16 L31,20 C31,20.5520861 30.8958344,21.0703101 30.6875,21.5546875 C30.4791656,22.0390649 30.1927102,22.4635398 29.828125,22.828125 C29.4635398,23.1927102 29.0390649,23.4791656 28.5546875,23.6875 C28.0703101,23.8958344 27.5520861,24 27,24 L24,24 C23.5208309,24.6250031 22.9322952,25.1145816 22.234375,25.46875 C21.5364548,25.8229184 20.7916706,26 20,26 C19.6562483,26 19.3229183,25.9687503 19,25.90625 L19,31.125 L1,27.984375 L1,4.109375 L19,0.875 L19,5.34375 C19.4895858,5.11458219 19.9895808,5 20.5,5 C20.9791691,5 21.4322895,5.09114492 21.859375,5.2734375 C22.2864605,5.45573008 22.6588526,5.70572758 22.9765625,6.0234375 C23.2942724,6.34114742 23.5442699,6.71353953 23.7265625,7.140625 C23.9088551,7.56771047 24,8.02083094 24,8.5 C24,8.97916906 23.9088551,9.43228953 23.7265625,9.859375 C23.5442699,10.2864605 23.2942724,10.6588526 22.9765625,10.9765625 C22.6588526,11.2942724 22.2864605,11.5442699 21.859375,11.7265625 C21.4322895,11.9088551 20.9791691,12 20.5,12 C19.9895808,12 19.4895858,11.8854178 19,11.65625 L19,14 L24,14 C24.2708347,14 24.5052073,14.0989573 24.703125,14.296875 C24.9010427,14.4947927 25,14.7291653 25,15 L30,15 Z M20.5,5.875 C20.2291653,5.875 19.9661471,5.91406211 19.7109375,5.9921875 C19.4557279,6.07031289 19.2187511,6.18749922 19,6.34375 L19,10.65625 C19.2187511,10.8125008 19.4557279,10.9296871 19.7109375,11.0078125 C19.9661471,11.0859379 20.2291653,11.125 20.5,11.125 C20.8645852,11.125 21.2057276,11.0572923 21.5234375,10.921875 C21.8411474,10.7864577 22.1197905,10.5989595 22.359375,10.359375 C22.5989595,10.1197905 22.7864577,9.84114742 22.921875,9.5234375 C23.0572923,9.20572758 23.125,8.86458516 23.125,8.5 C23.125,8.13541484 23.0572923,7.79427242 22.921875,7.4765625 C22.7864577,7.15885258 22.5989595,6.88020953 22.359375,6.640625 C22.1197905,6.40104047 21.8411474,6.21354234 21.5234375,6.078125 C21.2057276,5.94270766 20.8645852,5.875 20.5,5.875 Z M13.671875,10.03125 L6.328125,10.03125 L6.328125,12.15625 L8.953125,12.15625 L8.953125,21.75 L11,21.75 L11,12.140625 L13.671875,12.140625 L13.671875,10.03125 Z M20,25.125 C20.5520861,25.125 21.0729142,25.0182302 21.5625,24.8046875 C22.0520858,24.5911448 22.4765607,24.299481 22.8359375,23.9296875 C23.1953143,23.559894 23.4791656,23.1302108 23.6875,22.640625 C23.8958344,22.1510392 24,21.6302111 24,21.078125 L24,15 L19,15 L19,25 C19.1666675,25.0416669 19.3307284,25.0729166 19.4921875,25.09375 C19.6536466,25.1145834 19.8229158,25.125 20,25.125 Z M30,16 L25,16 L25,21 C25,21.7083369 24.8593764,22.3749969 24.578125,23 L27,23 C27.4166687,23 27.8072898,22.9218758 28.171875,22.765625 C28.5364602,22.6093742 28.8541653,22.3958347 29.125,22.125 C29.3958347,21.8541653 29.6093742,21.5364602 29.765625,21.171875 C29.9218758,20.8072898 30,20.4166687 30,20 L30,16 Z M27.5,14 C27.0208309,14 26.5677105,13.9088551 26.140625,13.7265625 C25.7135395,13.5442699 25.3411474,13.2942724 25.0234375,12.9765625 C24.7057276,12.6588526 24.4557301,12.2864605 24.2734375,11.859375 C24.0911449,11.4322895 24,10.9791691 24,10.5 C24,10.0208309 24.0911449,9.56771047 24.2734375,9.140625 C24.4557301,8.71353953 24.7057276,8.34114742 25.0234375,8.0234375 C25.3411474,7.70572758 25.7135395,7.45573008 26.140625,7.2734375 C26.5677105,7.09114492 27.0208309,7 27.5,7 C27.9791691,7 28.4322895,7.09114492 28.859375,7.2734375 C29.2864605,7.45573008 29.6588526,7.70572758 29.9765625,8.0234375 C30.2942724,8.34114742 30.5442699,8.71353953 30.7265625,9.140625 C30.9088551,9.56771047 31,10.0208309 31,10.5 C31,10.9791691 30.9088551,11.4322895 30.7265625,11.859375 C30.5442699,12.2864605 30.2942724,12.6588526 29.9765625,12.9765625 C29.6588526,13.2942724 29.2864605,13.5442699 28.859375,13.7265625 C28.4322895,13.9088551 27.9791691,14 27.5,14 Z M27.5,7.875 C27.1354148,7.875 26.7942724,7.94270766 26.4765625,8.078125 C26.1588526,8.21354234 25.8802095,8.40104047 25.640625,8.640625 C25.4010405,8.88020953 25.2135423,9.15885258 25.078125,9.4765625 C24.9427077,9.79427242 24.875,10.1354148 24.875,10.5 C24.875,10.8645852 24.9427077,11.2057276 25.078125,11.5234375 C25.2135423,11.8411474 25.4010405,12.1197905 25.640625,12.359375 C25.8802095,12.5989595 26.1588526,12.7864577 26.4765625,12.921875 C26.7942724,13.0572923 27.1354148,13.125 27.5,13.125 C27.8645852,13.125 28.2057276,13.0572923 28.5234375,12.921875 C28.8411474,12.7864577 29.1197905,12.5989595 29.359375,12.359375 C29.5989595,12.1197905 29.7864577,11.8411474 29.921875,11.5234375 C30.0572923,11.2057276 30.125,10.8645852 30.125,10.5 C30.125,10.1354148 30.0572923,9.79427242 29.921875,9.4765625 C29.7864577,9.15885258 29.5989595,8.88020953 29.359375,8.640625 C29.1197905,8.40104047 28.8411474,8.21354234 28.5234375,8.078125 C28.2057276,7.94270766 27.8645852,7.875 27.5,7.875 Z" id="" fill="#5558AF"></path>
                </g>
            </g>
            <g id="icon-apps-color-SharePoint" mask="url(#mask-2)">
                <g transform="translate(140.000000, 133.000000)">
                    <path d="M27.65625,12.53125 C27.729167,12.5208333 27.802083,12.5130209 27.875,12.5078125 C27.947917,12.5026041 28.020833,12.5 28.09375,12.5 C28.5625023,12.5 29.0026021,12.5937491 29.4140625,12.78125 C29.8255229,12.9687509 30.1848943,13.2239567 30.4921875,13.546875 C30.7994807,13.8697933 31.0442699,14.2421854 31.2265625,14.6640625 C31.4088551,15.0859396 31.5,15.5312477 31.5,16 C31.5,16.4895858 31.4088551,16.9453104 31.2265625,17.3671875 C31.0442699,17.7890646 30.7942724,18.1588526 30.4765625,18.4765625 C30.1588526,18.7942724 29.7864605,19.0442699 29.359375,19.2265625 C28.9322895,19.4088551 28.4791691,19.5 28,19.5 C27.9791666,19.5 27.9583334,19.4973959 27.9375,19.4921875 C27.9166666,19.4869791 27.8958334,19.484375 27.875,19.484375 C27.468748,20.5156302 26.8880246,21.4322877 26.1328125,22.234375 C25.3776004,23.0364623 24.500005,23.6718727 23.5,24.140625 C23.4791666,24.5781272 23.3750009,24.999998 23.1875,25.40625 C22.9999991,25.812502 22.7552098,26.1718734 22.453125,26.484375 C22.1510402,26.7968766 21.7994812,27.0442699 21.3984375,27.2265625 C20.9973938,27.4088551 20.5729189,27.5 20.125,27.5 C19.8333319,27.5 19.557293,27.4739586 19.296875,27.421875 C19.036457,27.3697914 18.7708347,27.2812506 18.5,27.15625 L18.5,20.84375 C18.760418,20.7187494 19.020832,20.6302086 19.28125,20.578125 C19.541668,20.5260414 19.8124986,20.5 20.09375,20.5 C20.5520856,20.5 20.9921854,20.5963532 21.4140625,20.7890625 C21.8359396,20.9817718 22.2031234,21.24479 22.515625,21.578125 C23.1718783,21.2239566 23.7499975,20.7656278 24.25,20.203125 C24.7500025,19.6406222 25.1249987,19.0052119 25.375,18.296875 C25.1041653,17.9739567 24.8906258,17.6171895 24.734375,17.2265625 C24.5781242,16.8359355 24.5,16.4270855 24.5,16 C24.5,15.1979127 24.7499975,14.4843781 25.25,13.859375 C24.9479152,13.1614548 24.5286485,12.5442735 23.9921875,12.0078125 C23.4557265,11.4713515 22.8437534,11.0520848 22.15625,10.75 C21.8854153,10.9583344 21.5703143,11.1354159 21.2109375,11.28125 C20.8515607,11.4270841 20.4947934,11.5 20.140625,11.5 C19.8385402,11.5 19.557293,11.4765627 19.296875,11.4296875 C19.036457,11.3828123 18.7708347,11.2916673 18.5,11.15625 L18.5,4.84375 C18.9895858,4.61458219 19.4895808,4.5 20,4.5 C20.4791691,4.5 20.9322895,4.59114492 21.359375,4.7734375 C21.7864605,4.95573008 22.1588526,5.20572758 22.4765625,5.5234375 C22.7942724,5.84114742 23.0442699,6.21353953 23.2265625,6.640625 C23.4088551,7.06771047 23.5,7.52083094 23.5,8 L23.5,8.171875 C23.5,8.23437531 23.4947917,8.29166641 23.484375,8.34375 C24.4010463,8.78125219 25.2161423,9.35937141 25.9296875,10.078125 C26.6432327,10.7968786 27.2187478,11.6145787 27.65625,12.53125 Z M9.125,13.3125 C9.125,13.3750003 9.13281242,13.4453121 9.1484375,13.5234375 C9.16406258,13.6015629 9.18749984,13.6666664 9.21875,13.71875 C9.25000016,13.7812503 9.31249953,13.8463538 9.40625,13.9140625 C9.50000047,13.9817712 9.57812469,14.0364581 9.640625,14.078125 C10.1197941,14.3802098 10.580727,14.6666653 11.0234375,14.9375 C11.466148,15.2083347 11.8593733,15.5078109 12.203125,15.8359375 C12.5468767,16.1640641 12.8203115,16.5520811 13.0234375,17 C13.2265635,17.4479189 13.328125,18.005205 13.328125,18.671875 C13.328125,19.3072948 13.2265635,19.8723934 13.0234375,20.3671875 C12.8203115,20.8619816 12.533856,21.27604 12.1640625,21.609375 C11.794269,21.94271 11.3541692,22.1979158 10.84375,22.375 C10.3333308,22.5520842 9.77083641,22.640625 9.15625,22.640625 C8.53124687,22.640625 7.92708625,22.5651049 7.34375,22.4140625 C6.76041375,22.2630201 6.2187525,21.9895853 5.71875,21.59375 C5.70833328,21.5729166 5.69531258,21.5234379 5.6796875,21.4453125 C5.66406242,21.3671871 5.65625,21.3177084 5.65625,21.296875 L5.65625,17.171875 C5.88541781,17.4114595 6.11458219,17.6588529 6.34375,17.9140625 C6.57291781,18.1692721 6.81770703,18.4036448 7.078125,18.6171875 C7.33854297,18.8307302 7.61718602,19.0052077 7.9140625,19.140625 C8.21093898,19.2760423 8.54166484,19.34375 8.90625,19.34375 C9.02083391,19.34375 9.12760367,19.3333334 9.2265625,19.3125 C9.32552133,19.2916666 9.41666625,19.2500003 9.5,19.1875 C9.58333375,19.0833328 9.625,18.9687506 9.625,18.84375 C9.625,18.6249989 9.52604266,18.4296884 9.328125,18.2578125 C9.13020734,18.0859366 8.88281398,17.9062509 8.5859375,17.71875 C8.28906102,17.5312491 7.96875172,17.325522 7.625,17.1015625 C7.28124828,16.877603 6.96093898,16.6067724 6.6640625,16.2890625 C6.36718602,15.9713526 6.11979266,15.5937522 5.921875,15.15625 C5.72395734,14.7187478 5.625,14.1927114 5.625,13.578125 C5.625,12.8802048 5.74479047,12.2708359 5.984375,11.75 C6.22395953,11.2291641 6.55468539,10.7942726 6.9765625,10.4453125 C7.39843961,10.0963524 7.89062219,9.83333422 8.453125,9.65625 C9.01562781,9.47916578 9.62499672,9.390625 10.28125,9.390625 C10.7395856,9.390625 11.1640605,9.42968711 11.5546875,9.5078125 C11.9453145,9.58593789 12.3541645,9.71354078 12.78125,9.890625 C12.7916667,9.91145844 12.8072916,9.97395781 12.828125,10.078125 C12.8489584,10.1822922 12.859375,10.2447916 12.859375,10.265625 L12.859375,14.09375 C12.6197905,13.9062491 12.3958344,13.7291675 12.1875,13.5625 C11.9791656,13.3958325 11.7682302,13.2500006 11.5546875,13.125 C11.3411448,12.9999994 11.1145845,12.901042 10.875,12.828125 C10.6354155,12.755208 10.3593766,12.71875 10.046875,12.71875 C9.91145766,12.71875 9.79947961,12.7265624 9.7109375,12.7421875 C9.62239539,12.7578126 9.51562563,12.7916664 9.390625,12.84375 L9.21875,13 C9.18749984,13.0520836 9.16406258,13.1015623 9.1484375,13.1484375 C9.13281242,13.1953127 9.125,13.2499997 9.125,13.3125 Z" id="" fill="#FFFFFF"></path>
                    <path d="M27.953125,12 C28.5156278,12 29.0416642,12.1041656 29.53125,12.3125 C30.0208358,12.5208344 30.4479148,12.8046857 30.8125,13.1640625 C31.1770852,13.5234393 31.4661448,13.9453101 31.6796875,14.4296875 C31.8932302,14.9140649 32,15.4374972 32,16 C32,16.5312527 31.9010427,17.0338518 31.703125,17.5078125 C31.5052073,17.9817732 31.2369809,18.3984357 30.8984375,18.7578125 C30.5598941,19.1171893 30.1588565,19.4062489 29.6953125,19.625 C29.2317685,19.8437511 28.7343777,19.9687498 28.203125,20 C27.7656228,20.9791716 27.1848995,21.8489545 26.4609375,22.609375 C25.7369755,23.3697955 24.9010464,23.9947892 23.953125,24.484375 C23.8906247,24.9843775 23.7447928,25.4479145 23.515625,25.875 C23.2864572,26.3020855 22.9947934,26.6744776 22.640625,26.9921875 C22.2864566,27.3098974 21.8828148,27.5572908 21.4296875,27.734375 C20.9765602,27.9114592 20.5000025,28 20,28 C19.8229158,28 19.6536466,27.9869793 19.4921875,27.9609375 C19.3307284,27.9348957 19.1666675,27.9010419 19,27.859375 L19,31.125 L1,27.984375 L1,4.109375 L19,0.875 L19,4.140625 C19.1666675,4.09895812 19.3307284,4.0651043 19.4921875,4.0390625 C19.6536466,4.0130207 19.8229158,4 20,4 C20.5625028,4 21.0859351,4.10676977 21.5703125,4.3203125 C22.0546899,4.53385523 22.4765607,4.82291484 22.8359375,5.1875 C23.1953143,5.55208516 23.4791656,5.97916422 23.6875,6.46875 C23.8958344,6.95833578 24,7.48437219 24,8.046875 C24.8437542,8.48437719 25.6041633,9.04166328 26.28125,9.71875 C26.9583367,10.3958367 27.5156228,11.1562458 27.953125,12 Z M9.15625,22.140625 C9.70833609,22.140625 10.2109352,22.0677091 10.6640625,21.921875 C11.1171898,21.7760409 11.5026026,21.5572931 11.8203125,21.265625 C12.1380224,20.9739569 12.3854158,20.6119813 12.5625,20.1796875 C12.7395842,19.7473937 12.828125,19.2447945 12.828125,18.671875 C12.828125,18.0572886 12.7239594,17.5442729 12.515625,17.1328125 C12.3072906,16.7213521 12.0468766,16.367189 11.734375,16.0703125 C11.4218734,15.773436 11.0859393,15.5234385 10.7265625,15.3203125 C10.3671857,15.1171865 10.0312516,14.9192718 9.71875,14.7265625 C9.40624844,14.5338532 9.14583437,14.3281261 8.9375,14.109375 C8.72916562,13.8906239 8.625,13.6250016 8.625,13.3125 C8.625,12.9583316 8.75260289,12.6875009 9.0078125,12.5 C9.26302211,12.3124991 9.55729,12.21875 9.890625,12.21875 C10.1718764,12.21875 10.4166656,12.2343748 10.625,12.265625 C10.8333344,12.2968752 11.0286449,12.3463538 11.2109375,12.4140625 C11.3932301,12.4817712 11.5729158,12.570312 11.75,12.6796875 C11.9270842,12.789063 12.1302072,12.9218742 12.359375,13.078125 L12.359375,10.265625 C12.0572902,10.1510411 11.7473974,10.0598962 11.4296875,9.9921875 C11.1119776,9.92447883 10.7916683,9.890625 10.46875,9.890625 C10.208332,9.890625 9.95312625,9.89843742 9.703125,9.9140625 C9.45312375,9.92968758 9.20312625,9.96354141 8.953125,10.015625 C8.06770391,10.2135427 7.3750025,10.6302052 6.875,11.265625 C6.3749975,11.9010448 6.125,12.6718705 6.125,13.578125 C6.125,14.1614612 6.22395734,14.656248 6.421875,15.0625 C6.61979266,15.468752 6.86718602,15.8151027 7.1640625,16.1015625 C7.46093898,16.3880223 7.78124828,16.6328115 8.125,16.8359375 C8.46875172,17.0390635 8.78906102,17.2395823 9.0859375,17.4375 C9.38281398,17.6354177 9.63020734,17.8411448 9.828125,18.0546875 C10.0260427,18.2682302 10.125,18.5312484 10.125,18.84375 C10.125,19.1145847 10.0286468,19.3489573 9.8359375,19.546875 C9.6432282,19.7447927 9.41145969,19.84375 9.140625,19.84375 C8.78645656,19.84375 8.47656383,19.8151045 8.2109375,19.7578125 C7.94531117,19.7005205 7.70052195,19.6145839 7.4765625,19.5 C7.25260305,19.3854161 7.03645937,19.2369801 6.828125,19.0546875 C6.61979063,18.8723949 6.39583453,18.6614595 6.15625,18.421875 L6.15625,21.296875 C6.58333547,21.6197933 7.0598932,21.8411452 7.5859375,21.9609375 C8.1119818,22.0807298 8.63541406,22.140625 9.15625,22.140625 Z M19,20.171875 C19.1770842,20.1197914 19.3515616,20.0859376 19.5234375,20.0703125 C19.6953134,20.0546874 19.8697908,20.046875 20.046875,20.046875 C20.5156273,20.046875 20.9687478,20.1223951 21.40625,20.2734375 C21.8437522,20.4244799 22.2395816,20.6510402 22.59375,20.953125 C23.0937525,20.6510402 23.5312481,20.2812522 23.90625,19.84375 C24.2812519,19.4062478 24.5833322,18.9218777 24.8125,18.390625 C24.5416653,18.0468733 24.3385423,17.671877 24.203125,17.265625 C24.0677077,16.859373 24,16.4375022 24,16 C24,15.6041647 24.0598952,15.221356 24.1796875,14.8515625 C24.2994798,14.481769 24.4635406,14.13021 24.671875,13.796875 C24.4010403,13.2656223 24.0546896,12.7890646 23.6328125,12.3671875 C23.2109354,11.9453104 22.7343777,11.5989597 22.203125,11.328125 C21.8802067,11.5364594 21.533856,11.695312 21.1640625,11.8046875 C20.794269,11.914063 20.4114603,11.96875 20.015625,11.96875 C19.8385408,11.96875 19.6666675,11.9609376 19.5,11.9453125 C19.3333325,11.9296874 19.1666675,11.8958336 19,11.84375 L19,20.171875 Z M27.546875,18.96875 C27.6093753,18.9791667 27.6718747,18.984375 27.734375,18.984375 L27.921875,18.984375 C28.3385438,18.984375 28.7343731,18.9140632 29.109375,18.7734375 C29.4843769,18.6328118 29.8124986,18.432293 30.09375,18.171875 C30.3750014,17.911457 30.5963534,17.596356 30.7578125,17.2265625 C30.9192716,16.856769 31,16.4479189 31,16 C31,15.5833313 30.9218758,15.1927102 30.765625,14.828125 C30.6093742,14.4635398 30.3958347,14.1458347 30.125,13.875 C29.8541653,13.6041653 29.5364602,13.3906258 29.171875,13.234375 C28.8072898,13.0781242 28.4166687,13 28,13 C27.8958328,13 27.789063,13.0078124 27.6796875,13.0234375 C27.570312,13.0390626 27.4635422,13.0520833 27.359375,13.0625 C27.0677069,12.4895805 26.7812514,11.9921896 26.5,11.5703125 C26.2187486,11.1484354 25.9088559,10.7682309 25.5703125,10.4296875 C25.2317691,10.0911441 24.8515646,9.78125141 24.4296875,9.5 C24.0078104,9.21874859 23.5104195,8.93229313 22.9375,8.640625 C22.9479167,8.53645781 22.9609374,8.42968805 22.9765625,8.3203125 C22.9921876,8.21093695 23,8.10416719 23,8 C23,7.58333125 22.9218758,7.19271016 22.765625,6.828125 C22.6093742,6.46353984 22.3958347,6.14583469 22.125,5.875 C21.8541653,5.60416531 21.5364602,5.39062578 21.171875,5.234375 C20.8072898,5.07812422 20.4166688,5 20,5 C19.8229158,5 19.6536466,5.01822898 19.4921875,5.0546875 C19.3307284,5.09114602 19.1666675,5.13541641 19,5.1875 L19,10.8125 C19.3437517,10.9270839 19.6770817,10.984375 20,10.984375 C20.4375022,10.984375 20.8098943,10.9114591 21.1171875,10.765625 C21.4244807,10.6197909 21.74479,10.4218763 22.078125,10.171875 C22.5781275,10.4114595 23.0104148,10.6484363 23.375,10.8828125 C23.7395852,11.1171887 24.0624986,11.3749986 24.34375,11.65625 C24.6250014,11.9375014 24.8828113,12.2604148 25.1171875,12.625 C25.3515637,12.9895852 25.5885405,13.4218725 25.828125,13.921875 C25.5781237,14.25521 25.3776049,14.5755193 25.2265625,14.8828125 C25.0755201,15.1901057 25,15.5624978 25,16 C25,16.4375022 25.0833325,16.8359357 25.25,17.1953125 C25.4166675,17.5546893 25.6510402,17.8854152 25.953125,18.1875 C25.6614569,19.114588 25.2135447,19.9088509 24.609375,20.5703125 C24.0052053,21.2317741 23.2708377,21.7708312 22.40625,22.1875 C22.072915,21.8229148 21.721356,21.5416677 21.3515625,21.34375 C20.981769,21.1458323 20.5416692,21.046875 20.03125,21.046875 C19.6874983,21.046875 19.3437517,21.1041661 19,21.21875 L19,26.8125 C19.3125016,26.9375006 19.6458316,27 20,27 C20.406252,27 20.7864566,26.9244799 21.140625,26.7734375 C21.4947934,26.6223951 21.8046862,26.4192721 22.0703125,26.1640625 C22.3359388,25.9088529 22.5494784,25.6067726 22.7109375,25.2578125 C22.8723966,24.9088524 22.9635416,24.531252 22.984375,24.125 L23,23.828125 C23.593753,23.5468736 24.1171852,23.2473974 24.5703125,22.9296875 C25.0234398,22.6119776 25.4270816,22.2578145 25.78125,21.8671875 C26.1354184,21.4765605 26.4531236,21.0442732 26.734375,20.5703125 C27.0156264,20.0963518 27.286457,19.562503 27.546875,18.96875 Z" id="" fill="#0078D7"></path>
                </g>
            </g>
            <g id="icon-apps-color-OneNote" mask="url(#mask-2)">
                <g transform="translate(76.000000, 133.000000)">
                    <path d="M11.25,16.125 L11.25,9.515625 L14.515625,9.328125 L14.515625,22.359375 L11.3125,22.171875 L7.3125,15.21875 L7.3125,21.953125 L4.515625,21.828125 L4.515625,9.84375 L7.578125,9.71875 L11.25,16.125 Z M28.5,5.5 L30.5,5.5 L30.5,26.5 L28.5,26.5 L28.5,27.5 L18.5,27.5 L18.5,4.5 L28.5,4.5 L28.5,5.5 Z" id="" fill="#FFFFFF"></path>
                    <path d="M31,6 L31,12 C31,12.1666675 30.9583338,12.3333325 30.875,12.5 C30.9583338,12.6666675 31,12.8333325 31,13 L31,19 C31,19.1666675 30.9583338,19.3333325 30.875,19.5 C30.9583338,19.6666675 31,19.8333325 31,20 L31,26 C31,26.2916681 30.9322923,26.5078118 30.796875,26.6484375 C30.6614577,26.7890632 30.4921885,26.8854164 30.2890625,26.9375 C30.0859365,26.9895836 29.8671887,27.0130209 29.6328125,27.0078125 C29.3984363,27.0026041 29.1875009,27 29,27 C29,27.2708347 28.9010427,27.5052073 28.703125,27.703125 C28.5052073,27.9010427 28.2708347,28 28,28 L19,28 L19,31.125 L1,27.984375 L1,4.109375 L19,0.875 L19,4 L28,4 C28.2708347,4 28.5052073,4.09895734 28.703125,4.296875 C28.9010427,4.49479266 29,4.72916531 29,5 C29.1875009,5 29.3984363,4.99739586 29.6328125,4.9921875 C29.8671887,4.98697914 30.0859365,5.01041641 30.2890625,5.0625 C30.4921885,5.11458359 30.6614577,5.2109368 30.796875,5.3515625 C30.9322923,5.4921882 31,5.70833187 31,6 Z M14.015625,21.828125 L14.015625,9.859375 L11.765625,9.984375 C11.765625,11.3281317 11.7630209,12.66666 11.7578125,14 C11.7526041,15.33334 11.7552083,16.6718683 11.765625,18.015625 L7.296875,10.234375 L5.015625,10.3125 L5.015625,21.34375 L6.8125,21.4375 L6.8125,13.34375 L11.609375,21.6875 L14.015625,21.828125 Z M30,26 L30,20 L29,20 L29,26 L30,26 Z M30,19 L30,13 L29,13 L29,19 L30,19 Z M30,12 L30,6 L28,6 L28,5 L19,5 L19,8 L25,8 L25,9 L19,9 L19,11 L25,11 L25,12 L19,12 L19,14 L25,14 L25,15 L19,15 L19,17 L25,17 L25,18 L19,18 L19,20 L25,20 L25,21 L19,21 L19,23 L25,23 L25,24 L19,24 L19,27 L28,27 L28,12 L30,12 Z" id="" fill="#7719AA"></path>
                </g>
            </g>
            <g id="icon-apps-color-PowerPoint" mask="url(#mask-2)">
                <g transform="translate(300.000000, 69.000000)">
                    <path d="M14.453125,13.609375 C14.453125,14.1093775 14.3906256,14.5937477 14.265625,15.0625 C14.1406244,15.5312523 13.9531263,15.9635397 13.703125,16.359375 C13.4531237,16.7552103 13.143231,17.1041652 12.7734375,17.40625 C12.403644,17.7083348 11.9739608,17.9479158 11.484375,18.125 C11.0468728,18.2812508 10.6093772,18.3697916 10.171875,18.390625 C9.73437281,18.4114584 9.28646063,18.4374998 8.828125,18.46875 L8.828125,22.890625 L5.5,22.5 L5.5,9.421875 C6.27083719,9.36979141 7.04166281,9.31510445 7.8125,9.2578125 C8.58333719,9.20052055 9.35937109,9.171875 10.140625,9.171875 C11.5885489,9.171875 12.6692673,9.55728781 13.3828125,10.328125 C14.0963577,11.0989622 14.453125,12.1927013 14.453125,13.609375 Z M15.5,5.5 L30.5,5.5 L30.5,26.5 L15.5,26.5 L15.5,5.5 Z" id="" fill="#FFFFFF"></path>
                    <path d="M31,6 L31,26 C31,26.2708347 30.9010427,26.5052073 30.703125,26.703125 C30.5052073,26.9010427 30.2708347,27 30,27 L19,27 L19,31.203125 L1,27.046875 L1,4.953125 L19,0.796875 L19,5 L30,5 C30.2708347,5 30.5052073,5.09895734 30.703125,5.296875 C30.9010427,5.49479266 31,5.72916531 31,6 Z M13.953125,13.609375 C13.953125,12.3697855 13.6484405,11.4036493 13.0390625,10.7109375 C12.4296845,10.0182257 11.4843814,9.671875 10.203125,9.671875 C9.50520484,9.671875 8.80469102,9.69791641 8.1015625,9.75 C7.39843398,9.80208359 6.69792016,9.84895812 6,9.890625 L6,22.0625 L8.328125,22.328125 L8.328125,18 C8.54687609,17.9791666 8.76822805,17.9609376 8.9921875,17.9453125 C9.21614695,17.9296874 9.44270719,17.921875 9.671875,17.921875 C10.3072948,17.921875 10.8880182,17.8177094 11.4140625,17.609375 C11.9401068,17.4010406 12.3906231,17.1067727 12.765625,16.7265625 C13.1406269,16.3463523 13.4322906,15.8906277 13.640625,15.359375 C13.8489594,14.8281223 13.953125,14.2447948 13.953125,13.609375 Z M30,26 L30,6 L19,6 L19,10.359375 C19.3750019,9.92187281 19.8255182,9.58593867 20.3515625,9.3515625 C20.8776068,9.11718633 21.4270805,9 22,9 L22,13 L26,13 C26,13.5520861 25.8958344,14.0703101 25.6875,14.5546875 C25.4791656,15.0390649 25.1927102,15.4635398 24.828125,15.828125 C24.4635398,16.1927102 24.0390649,16.4791656 23.5546875,16.6875 C23.0703101,16.8958344 22.5520861,17 22,17 C21.4270805,17 20.8776068,16.8828137 20.3515625,16.6484375 C19.8255182,16.4140613 19.3750019,16.0781272 19,15.640625 L19,19 L27,19 L27,20 L19,20 L19,22 L27,22 L27,23 L19,23 L19,26 L30,26 Z M23,8 C23.5520861,8 24.0703101,8.10416563 24.5546875,8.3125 C25.0390649,8.52083437 25.4635398,8.80728984 25.828125,9.171875 C26.1927102,9.53646016 26.4791656,9.96093508 26.6875,10.4453125 C26.8958344,10.9296899 27,11.4479139 27,12 L23,12 L23,8 Z M11.25,13.765625 C11.25,14.4218783 11.0885433,14.9218733 10.765625,15.265625 C10.4427067,15.6093767 9.94792,15.78125 9.28125,15.78125 L8.328125,15.78125 L8.328125,12 C8.50520922,11.9791666 8.68749906,11.9531252 8.875,11.921875 C9.06250094,11.8906248 9.24999906,11.875 9.4375,11.875 C10.0625031,11.875 10.5208319,12.0390609 10.8125,12.3671875 C11.1041681,12.6953141 11.25,13.1614553 11.25,13.765625 Z" id="" fill="#B7472A"></path>
                </g>
            </g>
            <g id="icon-apps-color-Excel" mask="url(#mask-2)">
                <g transform="translate(236.000000, 69.000000)">
                    <path d="M18.5,4.5 L30.5,4.5 L30.5,26.5 L18.5,26.5 L18.5,4.5 Z M15.25,9.3125 L11.6875,16.140625 L15.34375,23.078125 L11.21875,22.84375 L9.5,19 L7.84375,22.640625 L4.125,22.4375 L7.46875,16.1875 L4.40625,9.9375 L8.1875,9.71875 L9.625,13.265625 L11.3125,9.546875 L15.25,9.3125 Z" id="" fill="#FFFFFF"></path>
                    <path d="M31,5 L31,26 C31,26.2708347 30.9010427,26.5052073 30.703125,26.703125 C30.5052073,26.9010427 30.2708347,27 30,27 L19,27 L19,31.203125 L1,27.046875 L1,4.953125 L19,0.796875 L19,4 L30,4 C30.2708347,4 30.5052073,4.09895734 30.703125,4.296875 C30.9010427,4.49479266 31,4.72916531 31,5 Z M11.5625,22.359375 L14.484375,22.53125 L11.109375,16.140625 L14.390625,9.859375 L11.640625,10.015625 L9.96875,13.734375 C9.88541625,13.9010425 9.82291688,14.0755199 9.78125,14.2578125 C9.73958312,14.4401051 9.69270859,14.6197908 9.640625,14.796875 L9.609375,14.796875 C9.57812484,14.6197908 9.53385445,14.4453134 9.4765625,14.2734375 C9.41927055,14.1015616 9.35937531,13.9375008 9.296875,13.78125 L7.859375,10.25 L5.1875,10.390625 L8.03125,16.1875 L4.9375,21.984375 L7.53125,22.125 L9.265625,18.328125 L9.3203125,18.1640625 C9.3463543,18.0859371 9.3723957,18.0026046 9.3984375,17.9140625 C9.4244793,17.8255204 9.44791656,17.7421879 9.46875,17.6640625 C9.48958344,17.5859371 9.5,17.5312502 9.5,17.5 L9.53125,17.5 C9.55208344,17.5833338 9.57031242,17.6666662 9.5859375,17.75 C9.60156258,17.8333338 9.61979156,17.9166662 9.640625,18 C9.65104172,18.0937505 9.68749969,18.1979161 9.75,18.3125 L11.5625,22.359375 Z M30,26 L30,5 L19,5 L19,7 L22,7 L22,9 L19,9 L19,10 L22,10 L22,12 L19,12 L19,13 L22,13 L22,15 L19,15 L19,16 L22,16 L22,18 L19,18 L19,19 L22,19 L22,21 L19,21 L19,22 L22,22 L22,24 L19,24 L19,26 L30,26 Z M28,10 L28,12 L23,12 L23,10 L28,10 Z M28,7 L28,9 L23,9 L23,7 L28,7 Z M28,16 L28,18 L23,18 L23,16 L28,16 Z M28,22 L28,24 L23,24 L23,22 L28,22 Z M28,19 L28,21 L23,21 L23,19 L28,19 Z M28,13 L28,15 L23,15 L23,13 L28,13 Z" id="" fill="#217346"></path>
                </g>
            </g>
            <g id="icon-apps-color-Word" mask="url(#mask-2)">
                <g transform="translate(172.000000, 69.000000)">
                    <path d="M12.3125,15.515625 L13.421875,9.328125 L16.765625,9.125 L13.859375,21.59375 L10.6875,21.40625 L9.421875,15.515625 L8.15625,21.25 L5.171875,21.078125 L2.875,9.953125 L5.859375,9.765625 L6.8125,15.375 L8.078125,9.640625 L11.046875,9.46875 L12.3125,15.515625 Z M18.5,4.5 L30.5,4.5 L30.5,27.5 L18.5,27.5 L18.5,4.5 Z" id="-copy" fill="#FFFFFF"></path>
                    <path d="M31,5 L31,27 C31,27.2708347 30.9010427,27.5052073 30.703125,27.703125 C30.5052073,27.9010427 30.2708347,28 30,28 L19,28 L19,31.203125 L1,27.046875 L1,4.953125 L19,0.796875 L19,4 L30,4 C30.2708347,4 30.5052073,4.09895734 30.703125,4.296875 C30.9010427,4.49479266 31,4.72916531 31,5 Z M13.46875,21.0625 L16.125,9.671875 L13.84375,9.796875 L12.5,17.3125 C12.4583331,17.5208344 12.4244793,17.7265615 12.3984375,17.9296875 C12.3723957,18.1328135 12.359375,18.3385406 12.359375,18.546875 L12.34375,18.546875 C12.3229166,18.3489573 12.3020834,18.1484385 12.28125,17.9453125 C12.2604166,17.7421865 12.2291669,17.5416677 12.1875,17.34375 L10.65625,10 L8.484375,10.125 L6.921875,17.15625 C6.86979141,17.3541677 6.8307293,17.5546865 6.8046875,17.7578125 C6.7786457,17.9609385 6.765625,18.1666656 6.765625,18.375 L6.71875,18.375 C6.71875,18.1770823 6.70833344,17.9765635 6.6875,17.7734375 C6.66666656,17.5703115 6.64062516,17.3697927 6.609375,17.171875 L5.4375,10.296875 L3.46875,10.421875 L5.578125,20.609375 L7.765625,20.734375 L9.25,13.921875 C9.26041672,13.8697914 9.27083328,13.825521 9.28125,13.7890625 C9.29166672,13.752604 9.30208328,13.7083336 9.3125,13.65625 C9.34375016,13.4999992 9.36458328,13.3437508 9.375,13.1875 C9.38541672,13.0312492 9.40104156,12.8750008 9.421875,12.71875 L9.453125,12.71875 C9.453125,12.9270844 9.4661457,13.1302073 9.4921875,13.328125 C9.5182293,13.5260427 9.55208312,13.7239573 9.59375,13.921875 L11.09375,20.921875 L13.46875,21.0625 Z M30,27 L30,5 L19,5 L19,8 L27,8 L27,9 L19,9 L19,11 L27,11 L27,12 L19,12 L19,14 L27,14 L27,15 L19,15 L19,17 L27,17 L27,18 L19,18 L19,20 L27,20 L27,21 L19,21 L19,23 L27,23 L27,24 L19,24 L19,27 L30,27 Z" id="-copy" fill="#2B579A"></path>
                </g>
            </g>
            <g id="icon-apps-color-OneDrive" mask="url(#mask-2)" fill="#0078D7">
                <g transform="translate(108.000000, 69.000000)" id="">
                    <path d="M29.202117,18.2846744 C29.6633805,18.3161242 30.0774632,18.4314384 30.4443774,18.6306204 C30.8112916,18.8298024 31.123164,19.0866385 31.3800039,19.4011364 C31.6368439,19.7156343 31.8334021,20.0773014 31.9696845,20.4861486 C32.105967,20.8949959 32.1741071,21.3195617 32.1741071,21.7598587 C32.1741071,22.1896725 32.0954839,22.6116175 31.9382349,23.0257064 C31.780986,23.4397953 31.5608407,23.8093247 31.2777926,24.1343059 C30.9947445,24.459287 30.6619059,24.7213647 30.2792668,24.9205467 C29.8966278,25.1197287 29.4799243,25.2193182 29.029144,25.2193182 L12.0777926,25.2193182 C11.3544475,25.2193182 10.7149781,25.1118663 10.1593651,24.8969595 C9.60375219,24.6820526 9.13201244,24.3754217 8.74413171,23.9770577 C8.35625099,23.5786937 8.06272403,23.0964709 7.86354203,22.5303747 C7.66436004,21.9642785 7.56477053,21.3248091 7.56477053,20.6119472 C7.56477053,19.9934347 7.68270547,19.4378301 7.91857889,18.9451167 C8.1544523,18.4524034 8.47156625,18.0330791 8.86993024,17.6871314 C9.26829423,17.3411838 9.72955088,17.0738646 10.253714,16.8851658 C10.7778772,16.6964671 11.3334818,16.5916361 11.9205445,16.5706695 C11.9624775,15.9731235 12.0935164,15.393932 12.3136649,14.8330774 C12.5338134,14.2722228 12.8220988,13.7637922 13.1785297,13.3077703 C13.5349607,12.8517483 13.9569057,12.4586319 14.4443774,12.1284091 C14.9318491,11.7981863 15.4743499,11.5596957 16.0718958,11.41293 C16.5855757,11.2871308 17.109731,11.2242322 17.6443774,11.2242322 C18.6298041,11.2242322 19.5182473,11.449619 20.3097337,11.9003993 C21.10122,12.3511796 21.7642765,12.9854075 22.2989229,13.803102 C22.6343873,13.6144032 23.0275037,13.4702605 23.478284,13.3706695 C23.9290644,13.2710785 24.343147,13.2212838 24.7205445,13.2212838 C25.4124398,13.2212838 26.0335639,13.3418395 26.5839352,13.5829545 C27.1343065,13.8240696 27.6060462,14.1542874 27.9991686,14.5736179 C28.3922909,14.9929485 28.6936802,15.490896 28.9033455,16.0674754 C29.1130107,16.6440549 29.2178418,17.2677997 29.2178418,17.9387285 L29.202117,18.2846744 Z M10.6468344,15.2183354 C9.96542233,15.3651011 9.34429832,15.5931086 8.78344375,15.9023649 C8.22258919,16.2116211 7.74036633,16.5968753 7.33676071,17.0581388 C6.93315508,17.5194024 6.61866191,18.0487992 6.39327176,18.6463452 C6.16788161,19.2438912 6.05518822,19.8990853 6.05518822,20.6119472 C6.05518822,21.0522442 6.09187909,21.4925347 6.16526193,21.9328317 C6.23864477,22.3731287 6.35395894,22.7976945 6.51120788,23.2065418 L4.45125702,23.2065418 C3.88516082,23.2065418 3.34266011,23.0859861 2.82373859,22.844871 C2.30481708,22.603756 1.84880198,22.2840212 1.45567962,21.8856572 C1.06255727,21.4872933 0.750684873,21.0286574 0.520053089,20.5097359 C0.289421305,19.9908144 0.174107143,19.4483136 0.174107143,18.8822174 C0.174107143,17.9282405 0.383769256,17.0948336 0.803099772,16.3819717 C1.22243029,15.6691099 1.87762439,15.1292299 2.76870174,14.7623157 C2.96788373,14.6784496 3.18016662,14.6076887 3.40555677,14.5500307 C3.63094693,14.4923728 3.84847137,14.4530611 4.05813663,14.4320946 C4.04765336,14.327262 4.03979103,14.2276725 4.0345494,14.1333231 C4.02930777,14.0389737 4.026687,13.9393842 4.026687,13.8345516 C4.026687,13.1007232 4.16296737,12.4009759 4.4355322,11.7352887 C4.70809704,11.0696015 5.08286807,10.4851684 5.55985653,9.98197174 C6.03684499,9.47877513 6.60031192,9.08041711 7.25027422,8.78688575 C7.90023652,8.49335439 8.6026046,8.34659091 9.35739953,8.34659091 C9.55658152,8.34659091 9.77148519,8.35969479 10.002117,8.38590295 C10.2327488,8.41211111 10.4607563,8.45404353 10.6861465,8.51170147 C10.9115366,8.56935942 11.1316818,8.64012038 11.3465887,8.72398649 C11.5614956,8.80785259 11.7580538,8.90744209 11.9362693,9.02275799 C12.2298007,8.48811158 12.5862263,8.00064716 13.0055568,7.56035012 C13.4248873,7.12005308 13.8861439,6.74266128 14.3893406,6.42816339 C14.8925372,6.1136655 15.4324171,5.8699333 16.0089966,5.69695946 C16.585576,5.52398562 17.1831131,5.4375 17.8016256,5.4375 C18.6822197,5.4375 19.5261097,5.59474658 20.3333209,5.90924447 C21.1405321,6.22374236 21.8612457,6.66141202 22.4954831,7.22226658 C23.1297205,7.78312115 23.6538758,8.44093603 24.0679646,9.19573096 C24.4820535,9.95052589 24.7362688,10.7682081 24.8306182,11.6488022 C24.463704,11.6383189 24.0784499,11.6619059 23.6748442,11.7195639 C23.2712386,11.7772218 22.9017091,11.9056399 22.5662447,12.1048219 C22.3041632,11.6959746 21.98967,11.3369282 21.6227558,11.027672 C21.2558416,10.7184157 20.8574836,10.4589589 20.4276698,10.2492936 C19.997856,10.0396284 19.5470825,9.88238177 19.0753356,9.77754914 C18.6035888,9.67271651 18.1318491,9.62030098 17.6601022,9.62030098 C16.8109579,9.62030098 16.0063796,9.75658136 15.246343,10.0291462 C14.4863065,10.301711 13.799663,10.6869652 13.1863922,11.1849201 C12.5731213,11.6828751 12.0463452,12.2725498 11.6060482,12.9539619 C11.1657511,13.635374 10.8460164,14.3849161 10.6468344,15.2026106 L10.6468344,15.2183354 Z"></path>
                </g>
            </g>
            <g id="icon-apps-color-Outlook" mask="url(#mask-2)">
                <g transform="translate(44.000000, 69.000000)">
                    <path d="M15.5,15.90625 C15.5,16.7291708 15.388022,17.5364544 15.1640625,18.328125 C14.940103,19.1197956 14.6041689,19.8229136 14.15625,20.4375 C13.7083311,21.0520864 13.1406284,21.5494773 12.453125,21.9296875 C11.7656216,22.3098977 10.9635462,22.5 10.046875,22.5 C9.14062047,22.5 8.3411493,22.3255226 7.6484375,21.9765625 C6.9557257,21.6276024 6.37760648,21.1614613 5.9140625,20.578125 C5.45051852,19.9947887 5.09895953,19.3203163 4.859375,18.5546875 C4.61979047,17.7890587 4.5,16.9843792 4.5,16.140625 C4.5,15.2656206 4.61718633,14.4270873 4.8515625,13.625 C5.08593867,12.8229127 5.44270594,12.1171905 5.921875,11.5078125 C6.40104406,10.8984345 6.99478812,10.4114602 7.703125,10.046875 C8.41146188,9.68228984 9.24478688,9.5 10.203125,9.5 C11.0989628,9.5 11.880205,9.68228984 12.546875,10.046875 C13.213545,10.4114602 13.7656228,10.8932262 14.203125,11.4921875 C14.6406272,12.0911488 14.9661448,12.7760378 15.1796875,13.546875 C15.3932302,14.3177122 15.5,15.1041627 15.5,15.90625 Z M18.5,8.5 L30.5,8.5 L30.5,23.5 L18.5,23.5 L18.5,8.5 Z" id="" fill="#FFFFFF"></path>
                    <path d="M31,9 L31,23 C31,23.2708347 30.9010427,23.5052073 30.703125,23.703125 C30.5052073,23.9010427 30.2708347,24 30,24 L19,24 L19,31.125 L1,27.984375 L1,4.109375 L19,0.875 L19,8 L30,8 C30.2708347,8 30.5052073,8.09895734 30.703125,8.296875 C30.9010427,8.49479266 31,8.72916531 31,9 Z M15,15.90625 C15,15.1874964 14.9062509,14.476566 14.71875,13.7734375 C14.5312491,13.070309 14.2447936,12.4375028 13.859375,11.875 C13.4739564,11.3124972 12.9817738,10.8593767 12.3828125,10.515625 C11.7838512,10.1718733 11.0781291,10 10.265625,10 C9.36978719,10 8.59114914,10.166665 7.9296875,10.5 C7.26822586,10.833335 6.72135633,11.2812472 6.2890625,11.84375 C5.85676867,12.4062528 5.53385523,13.057288 5.3203125,13.796875 C5.10676977,14.536462 5,15.3177042 5,16.140625 C5,16.9218789 5.10676977,17.6666631 5.3203125,18.375 C5.53385523,19.0833369 5.85156039,19.7057265 6.2734375,20.2421875 C6.69531461,20.7786485 7.22395516,21.2057276 7.859375,21.5234375 C8.49479484,21.8411474 9.23437078,22 10.078125,22 C10.6302111,22 11.1458309,21.9114592 11.625,21.734375 C12.1041691,21.5572908 12.5364564,21.3125016 12.921875,21 C13.3072936,20.6874984 13.6432277,20.3177105 13.9296875,19.890625 C14.2161473,19.4635395 14.4479158,19.0000025 14.625,18.5 C14.7708341,18.093748 14.8697914,17.669273 14.921875,17.2265625 C14.9739586,16.783852 15,16.3437522 15,15.90625 Z M30,23 L30,9 L19,9 L19,13.40625 C19.0520836,13.4583336 19.1718741,13.5755199 19.359375,13.7578125 C19.5468759,13.9401051 19.7682279,14.1562487 20.0234375,14.40625 C20.2786471,14.6562513 20.5468736,14.9218736 20.828125,15.203125 C21.1093764,15.4843764 21.3723946,15.7421863 21.6171875,15.9765625 C21.8619804,16.2109387 22.0651034,16.4036451 22.2265625,16.5546875 C22.3880216,16.7057299 22.4791666,16.78125 22.5,16.78125 L22.578125,16.75 L30,9.5 L30,11.75 L23.03125,18.296875 C22.8749992,18.4322923 22.6979177,18.5 22.5,18.5 C22.3020823,18.5 22.1250008,18.4322923 21.96875,18.296875 L19,15.5 L19,23 L30,23 Z M12.40625,16.0625 C12.40625,16.4479186 12.3671879,16.8567687 12.2890625,17.2890625 C12.2109371,17.7213563 12.0755218,18.1171857 11.8828125,18.4765625 C11.6901032,18.8359393 11.4322933,19.1354155 11.109375,19.375 C10.7864567,19.6145845 10.3854191,19.734375 9.90625,19.734375 C9.39583078,19.734375 8.97135586,19.6197928 8.6328125,19.390625 C8.29426914,19.1614572 8.02343852,18.8671893 7.8203125,18.5078125 C7.61718648,18.1484357 7.47135461,17.7500022 7.3828125,17.3125 C7.29427039,16.8749978 7.25,16.4427105 7.25,16.015625 C7.25,15.5781228 7.29427039,15.138023 7.3828125,14.6953125 C7.47135461,14.252602 7.61979062,13.8515643 7.828125,13.4921875 C8.03645937,13.1328107 8.31510242,12.8385428 8.6640625,12.609375 C9.01302258,12.3802072 9.44791406,12.265625 9.96875,12.265625 C10.4479191,12.265625 10.8463526,12.3932279 11.1640625,12.6484375 C11.4817724,12.9036471 11.7317699,13.2213523 11.9140625,13.6015625 C12.0963551,13.9817727 12.223958,14.393227 12.296875,14.8359375 C12.369792,15.278648 12.40625,15.6874981 12.40625,16.0625 Z" id="" fill="#0078D7"></path>
                </g>
            </g>
        </g>
    </g>
</svg>